<svg width="279" height="263" viewBox="0 0 279 263" fill="none" xmlns="http://www.w3.org/2000/svg">
<path d="M75.4243 262.631C63.5951 262.633 52.2653 262.72 40.937 262.622C17.938 262.425 0.153819 244.516 0.112315 221.583C0.0833526 205.589 0.0902195 189.595 0.107005 173.6C0.113566 167.356 0.268534 167.217 6.5958 167.217C53.2453 167.215 99.8958 167.048 146.544 167.329C160.488 167.413 173.692 165.115 186.27 159.178C199.804 152.791 213.515 146.81 227.33 140.877C218.765 140.776 210.438 142.681 202.087 144.057C173.148 148.828 144.186 152.279 114.711 151.683C78.905 150.96 43.0741 151.485 7.25395 151.454C0.154154 151.448 0.112223 151.413 0.12559 144.168C0.145121 133.583 -1.17426 134.226 10.0592 134.226C97.0271 134.226 183.995 134.231 270.963 134.244C278.654 134.245 278.673 134.272 278.676 141.992C278.686 168.315 278.703 194.639 278.678 220.963C278.656 244.719 260.785 262.608 236.865 262.633C183.218 262.689 129.571 262.639 75.4243 262.631Z" fill="white"/>
<path d="M278.685 63.3492C278.683 79.5121 278.684 95.175 278.677 110.838C278.674 118.345 278.668 118.376 271.255 118.376C201.439 118.376 131.623 118.366 61.8066 118.355C43.3111 118.352 24.8142 118.215 6.32097 118.413C1.58082 118.464 -0.13318 117.019 0.00799385 112.144C0.370665 99.622 -1.12259 101.167 10.9773 101.159C54.6334 101.128 98.291 101.38 141.945 101.091C162.94 100.952 183.302 105.134 203.818 108.494C212.99 109.997 222.172 111.445 231.598 112.342C229.647 111.437 227.73 110.448 225.74 109.641C213.386 104.634 201.291 99.058 189.404 93.0367C177.414 86.9628 164.775 84.5312 151.32 84.599C103.166 84.8416 55.0101 84.7019 6.85499 84.7111C0.118285 84.7124 0.104369 84.7234 0.0996839 77.7399C0.0915209 65.5762 0.079604 53.4123 0.110182 41.2486C0.169386 17.7036 17.6669 0.0528068 41.1447 0.0359618C106.796 -0.0111582 172.447 -0.0121947 238.098 0.0341613C260.406 0.0499083 278.391 17.9928 278.662 40.3568C278.753 47.8532 278.682 55.3516 278.685 63.3492Z" fill="white"/>
</svg>
